<svg width="18" height="14" viewBox="0 0 18 14" fill="none" xmlns="http://www.w3.org/2000/svg">
<path d="M3.25098 13.6064C1.69238 13.6064 0.837891 12.7588 0.837891 11.207V2.93555C0.837891 1.38379 1.69238 0.536133 3.25098 0.536133H14.7422C16.3076 0.536133 17.1553 1.38379 17.1553 2.93555V11.207C17.1553 12.7588 16.3076 13.6064 14.7422 13.6064H3.25098ZM10.1143 10.4346C10.5039 10.4346 10.7432 10.1543 10.7432 9.73047V8.86914L10.6543 8.03516L11.4541 8.93066L13.293 10.7695C13.457 10.9336 13.6348 11.002 13.8398 11.002C14.2432 11.002 14.5576 10.7217 14.5576 10.291C14.5576 10.1133 14.4688 9.92188 14.332 9.77148L12.4658 7.91895L11.5635 7.1123L12.3564 7.22168H13.2793C13.7031 7.22168 13.9834 6.97559 13.9834 6.58594C13.9834 6.20312 13.7031 5.96387 13.2725 5.96387H10.3193C9.7998 5.96387 9.49219 6.24414 9.49219 6.79102V9.73047C9.49219 10.1475 9.73145 10.4346 10.1143 10.4346Z" fill="url(#paint0_linear_250_45)"/>
<defs>
<linearGradient id="paint0_linear_250_45" x1="-1" y1="7.5" x2="19" y2="7.5" gradientUnits="userSpaceOnUse">
<stop stop-color="#C330FD"/>
<stop offset="1" stop-color="#FF6C2D"/>
</linearGradient>
</defs>
</svg>
