<svg width="16" height="12" viewBox="0 0 16 12" fill="none" xmlns="http://www.w3.org/2000/svg">
<path d="M2.64453 11.1719C1.41992 11.1719 0.804688 10.5625 0.804688 9.35547V3.2207C0.804688 2.01367 1.41992 1.41016 2.64453 1.41016H4.2793C4.73633 1.41016 4.88281 1.31055 5.14648 1.02344L5.61523 0.496094C5.9082 0.173828 6.20703 -0.00195312 6.81055 -0.00195312H9.14844C9.75195 -0.00195312 10.0508 0.173828 10.3438 0.496094L10.8125 1.02344C11.0762 1.31641 11.2168 1.41016 11.6797 1.41016H13.3555C14.5742 1.41016 15.1953 2.01367 15.1953 3.2207V9.35547C15.1953 10.5625 14.5742 11.1719 13.3555 11.1719H2.64453ZM12.9453 4.49219C13.3496 4.49219 13.6777 4.16406 13.6777 3.76562C13.6777 3.36133 13.3496 3.03906 12.9453 3.03906C12.5469 3.03906 12.2188 3.36133 12.2188 3.76562C12.2188 4.16406 12.5469 4.49219 12.9453 4.49219ZM8 9.44336C9.76953 9.44336 11.1934 8.02539 11.1934 6.23828C11.1934 4.45703 9.77539 3.03906 8 3.03906C6.22461 3.03906 4.80078 4.45703 4.80078 6.23828C4.80078 8.02539 6.22461 9.44336 8 9.44336ZM8 8.55273C6.72852 8.55273 5.68555 7.52734 5.68555 6.23828C5.68555 4.95508 6.72266 3.92383 8 3.92383C9.27734 3.92383 10.3086 4.95508 10.3086 6.23828C10.3086 7.52734 9.27734 8.55273 8 8.55273Z" fill="black"/>
</svg>
