<svg width="21" height="17" viewBox="0 0 21 17" fill="none" xmlns="http://www.w3.org/2000/svg">
<path d="M2.91309 16.6602C1.17822 16.6602 0.306641 15.7969 0.306641 14.0869V5.396C0.306641 3.68604 1.17822 2.83105 2.91309 2.83105H5.229C5.87646 2.83105 6.08398 2.68994 6.45752 2.2832L7.12158 1.53613C7.53662 1.07959 7.95996 0.830566 8.81494 0.830566H12.127C12.9819 0.830566 13.4053 1.07959 13.8203 1.53613L14.4844 2.2832C14.8579 2.69824 15.0571 2.83105 15.7129 2.83105H18.0869C19.8135 2.83105 20.6934 3.68604 20.6934 5.396V14.0869C20.6934 15.7969 19.8135 16.6602 18.0869 16.6602H2.91309ZM17.5059 7.19727C18.0786 7.19727 18.5435 6.73242 18.5435 6.16797C18.5435 5.59521 18.0786 5.13867 17.5059 5.13867C16.9414 5.13867 16.4766 5.59521 16.4766 6.16797C16.4766 6.73242 16.9414 7.19727 17.5059 7.19727ZM10.5 14.2114C13.0068 14.2114 15.0239 12.2026 15.0239 9.6709C15.0239 7.14746 13.0151 5.13867 10.5 5.13867C7.98486 5.13867 5.96777 7.14746 5.96777 9.6709C5.96777 12.2026 7.98486 14.2114 10.5 14.2114ZM10.5 12.9497C8.69873 12.9497 7.22119 11.4971 7.22119 9.6709C7.22119 7.85303 8.69043 6.39209 10.5 6.39209C12.3096 6.39209 13.7705 7.85303 13.7705 9.6709C13.7705 11.4971 12.3096 12.9497 10.5 12.9497Z" fill="white"/>
</svg>
