<svg width="24" height="20" viewBox="0 0 24 20" fill="none" xmlns="http://www.w3.org/2000/svg">
<g filter="url(#filter0_d_89_88)">
<path d="M6.64453 11.1719C5.41992 11.1719 4.80469 10.5625 4.80469 9.35547V3.2207C4.80469 2.01367 5.41992 1.41016 6.64453 1.41016H8.2793C8.73633 1.41016 8.88281 1.31055 9.14648 1.02344L9.61523 0.496094C9.9082 0.173828 10.207 -0.00195312 10.8105 -0.00195312H13.1484C13.752 -0.00195312 14.0508 0.173828 14.3438 0.496094L14.8125 1.02344C15.0762 1.31641 15.2168 1.41016 15.6797 1.41016H17.3555C18.5742 1.41016 19.1953 2.01367 19.1953 3.2207V9.35547C19.1953 10.5625 18.5742 11.1719 17.3555 11.1719H6.64453ZM16.9453 4.49219C17.3496 4.49219 17.6777 4.16406 17.6777 3.76562C17.6777 3.36133 17.3496 3.03906 16.9453 3.03906C16.5469 3.03906 16.2188 3.36133 16.2188 3.76562C16.2188 4.16406 16.5469 4.49219 16.9453 4.49219ZM12 9.44336C13.7695 9.44336 15.1934 8.02539 15.1934 6.23828C15.1934 4.45703 13.7754 3.03906 12 3.03906C10.2246 3.03906 8.80078 4.45703 8.80078 6.23828C8.80078 8.02539 10.2246 9.44336 12 9.44336ZM12 8.55273C10.7285 8.55273 9.68555 7.52734 9.68555 6.23828C9.68555 4.95508 10.7227 3.92383 12 3.92383C13.2773 3.92383 14.3086 4.95508 14.3086 6.23828C14.3086 7.52734 13.2773 8.55273 12 8.55273Z" fill="white"/>
</g>
<defs>
<filter id="filter0_d_89_88" x="0.804688" y="-0.00195312" width="22.3906" height="19.1738" filterUnits="userSpaceOnUse" color-interpolation-filters="sRGB">
<feFlood flood-opacity="0" result="BackgroundImageFix"/>
<feColorMatrix in="SourceAlpha" type="matrix" values="0 0 0 0 0 0 0 0 0 0 0 0 0 0 0 0 0 0 127 0" result="hardAlpha"/>
<feOffset dy="4"/>
<feGaussianBlur stdDeviation="2"/>
<feComposite in2="hardAlpha" operator="out"/>
<feColorMatrix type="matrix" values="0 0 0 0 0 0 0 0 0 0 0 0 0 0 0 0 0 0 0.25 0"/>
<feBlend mode="normal" in2="BackgroundImageFix" result="effect1_dropShadow_89_88"/>
<feBlend mode="normal" in="SourceGraphic" in2="effect1_dropShadow_89_88" result="shape"/>
</filter>
</defs>
</svg>
