<svg width="16" height="16" viewBox="0 0 16 16" fill="none" xmlns="http://www.w3.org/2000/svg">
<path d="M2.95508 15.1943C2.42871 15.1943 2.27832 14.7637 2.54492 14.4219C2.80469 14.0801 3.48828 13.3281 3.87109 12.6992C3.92578 12.5967 3.8916 12.4941 3.78906 12.4395C1.59473 11.2637 0.248047 9.34277 0.248047 7.15527C0.248047 3.7168 3.69336 0.941406 8 0.941406C12.3066 0.941406 15.752 3.7168 15.752 7.15527C15.752 10.5596 12.4844 13.3623 7.55566 13.3623C7.4668 13.3623 7.37793 13.3555 7.28906 13.3486C7.19336 13.3486 7.09766 13.3828 6.98145 13.4648C5.81934 14.2988 3.77539 15.1943 2.95508 15.1943Z" fill="#8E8E8E"/>
</svg>
