<svg width="14" height="16" viewBox="0 0 14 16" fill="none" xmlns="http://www.w3.org/2000/svg">
<path d="M7 15.5371C3.15137 15.5371 0.0273438 12.4131 0.0273438 8.56445C0.0273438 6.21973 1.16895 4.18945 2.93262 2.91797C3.2334 2.68555 3.62305 2.76758 3.79395 3.04102C3.96484 3.32812 3.87598 3.64941 3.5957 3.86133C2.14648 4.90039 1.18945 6.61621 1.18945 8.56445C1.18945 11.7773 3.78711 14.375 7 14.375C10.2129 14.375 12.8105 11.7773 12.8105 8.56445C12.8105 5.78906 10.8896 3.49902 8.31934 2.9043V3.88867C8.31934 4.37402 7.98438 4.49707 7.6084 4.2373L5.42773 2.70605C5.12012 2.4873 5.11328 2.15918 5.42773 1.93359L7.60156 0.402344C7.98438 0.135742 8.31934 0.258789 8.31934 0.750977V1.72168C11.5186 2.32324 13.9727 5.15332 13.9727 8.56445C13.9727 12.4131 10.8486 15.5371 7 15.5371Z" fill="#505050"/>
</svg>
