<svg width="35" height="33" viewBox="0 0 35 33" fill="none" xmlns="http://www.w3.org/2000/svg">
<path d="M17.4902 26.7852C17.2559 26.7852 17.0215 26.7754 16.7773 26.7559L16.25 27.7617C16.1133 28.0156 15.8984 28.1328 15.6152 28.084C15.3516 28.0254 15.1758 27.8496 15.1367 27.5664L14.9805 26.4434C14.5215 26.3164 14.0723 26.1602 13.6426 25.9551L12.793 26.7168C12.5977 26.9121 12.3438 26.9414 12.0898 26.7949C11.8555 26.6582 11.7578 26.4238 11.8164 26.1504L12.0508 25.0469C11.6699 24.7637 11.2988 24.4609 10.957 24.1191L9.91211 24.5586C9.6582 24.6562 9.41406 24.6074 9.21875 24.3828C9.05273 24.1777 9.02344 23.9238 9.17969 23.6797L9.78516 22.7324C9.51172 22.332 9.27734 21.9219 9.07227 21.4922L7.93945 21.5312C7.65625 21.541 7.45117 21.4141 7.34375 21.1406C7.26562 20.877 7.32422 20.6328 7.54883 20.4668L8.44727 19.7734C8.33008 19.3145 8.24219 18.8457 8.20312 18.3574L7.11914 18.0156C6.8457 17.9277 6.69922 17.7324 6.69922 17.4492C6.69922 17.166 6.8457 16.9609 7.11914 16.8828L8.20312 16.541C8.24219 16.0527 8.33008 15.584 8.44727 15.125L7.54883 14.4316C7.32422 14.2656 7.24609 14.0215 7.35352 13.7578C7.45117 13.4941 7.65625 13.3477 7.94922 13.3672L9.07227 13.4062C9.27734 12.9863 9.51172 12.5664 9.78516 12.1758L9.17969 11.2188C9.02344 10.9746 9.0332 10.7207 9.21875 10.5156C9.4043 10.3008 9.6582 10.2324 9.91211 10.3398L10.957 10.7695C11.2988 10.4375 11.6602 10.1348 12.0508 9.86133L11.8164 8.74805C11.7578 8.47461 11.8457 8.24023 12.0898 8.10352C12.3438 7.9668 12.5977 7.98633 12.8027 8.18164L13.6328 8.94336C14.0625 8.74805 14.5117 8.58203 14.9707 8.44531L15.1367 7.32227C15.1758 7.04883 15.3418 6.86328 15.625 6.81445C15.8887 6.77539 16.1133 6.88281 16.25 7.13672L16.7773 8.13281C17.0215 8.12305 17.2559 8.11328 17.4902 8.11328C17.7344 8.11328 17.9688 8.12305 18.2031 8.13281L18.7402 7.12695C18.8672 6.88281 19.0918 6.76562 19.375 6.81445C19.6387 6.87305 19.8145 7.04883 19.8438 7.32227L20 8.44531C20.4688 8.58203 20.918 8.73828 21.3379 8.93359L22.1875 8.18164C22.3926 7.99609 22.6465 7.95703 22.9004 8.10352C23.1348 8.24023 23.2324 8.46484 23.1738 8.74805L22.9297 9.85156C23.3105 10.125 23.6816 10.4277 24.0234 10.7695L25.0781 10.3398C25.332 10.2422 25.5762 10.291 25.7715 10.5059C25.9375 10.7207 25.957 10.9746 25.8008 11.2188L25.2051 12.166C25.4688 12.5566 25.7031 12.9766 25.918 13.3965L27.041 13.3672C27.3242 13.3574 27.5391 13.4844 27.6367 13.7578C27.7246 14.0215 27.666 14.2656 27.4316 14.4316L26.5332 15.125C26.6602 15.584 26.7383 16.0527 26.7871 16.541L27.8613 16.8828C28.1348 16.9609 28.291 17.166 28.291 17.4492C28.291 17.7324 28.1348 17.9277 27.8613 18.0156L26.7871 18.3574C26.7383 18.8457 26.6602 19.3145 26.5332 19.7734L27.4414 20.4668C27.666 20.6328 27.7344 20.877 27.6367 21.1309C27.5391 21.4043 27.3242 21.541 27.041 21.5312L25.918 21.4922C25.7031 21.9121 25.4688 22.3223 25.2051 22.7227L25.8105 23.6797C25.9668 23.9238 25.9473 24.168 25.7617 24.3828C25.5762 24.5977 25.332 24.6562 25.0684 24.5586L24.0234 24.1289C23.6816 24.4512 23.3203 24.7637 22.9297 25.0371L23.1738 26.1504C23.2324 26.4238 23.1348 26.6582 22.8906 26.7949C22.6465 26.9219 22.3926 26.9121 22.1875 26.7168L21.3477 25.9551C20.918 26.1504 20.4785 26.3164 20.0098 26.4434L19.8438 27.5762C19.8145 27.8496 19.6484 28.0352 19.3652 28.084C19.0918 28.1133 18.8672 28.0156 18.7402 27.7617L18.2031 26.7559C17.9688 26.7754 17.7344 26.7852 17.4902 26.7852ZM17.5 14.8906C18.6719 14.8906 19.668 15.6816 19.9609 16.7656H25.1758C24.834 12.8203 21.5234 9.73438 17.4902 9.73438C16.3086 9.73438 15.1855 9.99805 14.1797 10.4766L16.8066 14.9785C17.0215 14.9199 17.2559 14.8906 17.5 14.8906ZM9.77539 17.4492C9.77539 20.0078 11.0156 22.2734 12.9297 23.6797L15.6543 19.2266C15.2148 18.7676 14.9414 18.1328 14.9414 17.4492C14.9414 16.7656 15.2051 16.1504 15.6348 15.6914L12.9883 11.1797C11.0449 12.5762 9.77539 14.8613 9.77539 17.4492ZM17.5 18.543C18.1055 18.543 18.5938 18.0547 18.5938 17.4492C18.5938 16.8438 18.1055 16.3555 17.5 16.3555C16.8945 16.3555 16.4062 16.8438 16.4062 17.4492C16.4062 18.0547 16.8945 18.543 17.5 18.543ZM17.4902 25.1641C21.5332 25.1641 24.8438 22.0684 25.1855 18.1133H19.9707C19.6777 19.207 18.6816 20.0078 17.5 20.0078C17.2656 20.0078 17.041 19.9785 16.8262 19.9199L14.1113 24.3828C15.1367 24.8809 16.2793 25.1641 17.4902 25.1641Z" fill="#8E8E8E"/>
</svg>
