<svg width="16" height="16" viewBox="0 0 16 16" fill="none" xmlns="http://www.w3.org/2000/svg">
<path d="M1.40625 7.21875C0.914062 7.21875 0.554688 6.86719 0.554688 6.36719C0.554688 5.875 0.921875 5.52344 1.40625 5.52344H2.00781L4.47656 5.6875L2.55469 3.86719L0.289062 1.60938C0.125 1.44531 0.0390625 1.22656 0.0390625 0.992188C0.0390625 0.46875 0.414062 0.117188 0.9375 0.117188C1.16406 0.117188 1.375 0.195312 1.53125 0.359375L3.78125 2.625L5.60938 4.55469L5.44531 2.09375V1.53906C5.44531 1.04688 5.80469 0.6875 6.28906 0.6875C6.78125 0.6875 7.14844 1.05469 7.14844 1.53906V5.8125C7.14844 6.70312 6.63281 7.21875 5.73438 7.21875H1.40625ZM9.10156 15.125C8.60938 15.125 8.25 14.7656 8.25 14.2812V9.9375C8.25 9.04688 8.76562 8.52344 9.65625 8.52344H14.0625C14.5547 8.52344 14.9141 8.88281 14.9141 9.375C14.9141 9.86719 14.5469 10.2188 14.0625 10.2188H13.3828L10.9141 10.0547L12.8438 11.8828L15.1484 14.1797C15.3125 14.3438 15.3984 14.5625 15.3984 14.7969C15.3984 15.3203 15.0234 15.6797 14.5 15.6797C14.2734 15.6797 14.0625 15.5938 13.9062 15.4297L11.6094 13.1172L9.78125 11.1953L9.94531 13.6484V14.2812C9.94531 14.7734 9.59375 15.125 9.10156 15.125Z" fill="black"/>
</svg>
